HIERARCHY
ROOT root
{
	OFFSET	0	13.1	24.9
	CHANNELS 6  Xposition Yposition Zposition Xrotation Yrotation Zrotation
	JOINT spine_1
	{
		OFFSET	0	9.99999	0
		CHANNELS 3  Xrotation Yrotation Zrotation
		JOINT spine_2
		{
			OFFSET	0	112	-10
			CHANNELS 3  Xrotation Yrotation Zrotation
			JOINT spine_3
			{
				OFFSET	0	206.5	19.3
				CHANNELS 3  Xrotation Yrotation Zrotation
				JOINT spine_4
				{
					OFFSET	0	110.4	14.6
					CHANNELS 3  Xrotation Yrotation Zrotation
					JOINT neck_1
					{
						OFFSET	0	71.8	-50.3
						CHANNELS 3  Xrotation Yrotation Zrotation
						JOINT neck_2
						{
							OFFSET	0	86.2	-25.8
							CHANNELS 3  Xrotation Yrotation Zrotation
							JOINT head_ee
							{
								OFFSET	0	179.8	-8.7
								CHANNELS 3  Xrotation Yrotation Zrotation
								End Site
								{
									OFFSET	1	0	0
								}
							}
						}
					}
					JOINT left_clavicle
					{
						OFFSET	-43.2	22.4	-70.8
						CHANNELS 3  Xrotation Yrotation Zrotation
						JOINT left_shoulder
						{
							OFFSET	-93.9	-5.79999	48.7
							CHANNELS 3  Xrotation Yrotation Zrotation
							JOINT left_elbow
							{
								OFFSET	-291.4	-30.8	15.2
								CHANNELS 3  Xrotation Yrotation Zrotation
								JOINT left_lowarm_twist
								{
									OFFSET	-110.7	-3.89999	13.6
									CHANNELS 3  Xrotation Yrotation Zrotation
									JOINT left_hand
									{
										OFFSET	-110.7	-3.89999	13.6
										CHANNELS 3  Xrotation Yrotation Zrotation
										JOINT left_ee
										{
											OFFSET	-80.8	-5.10001	12.1
											CHANNELS 3  Xrotation Yrotation Zrotation
											End Site
											{
												OFFSET	1	0	0
											}
										}
									}
								}
							}
						}
					}
					JOINT right_clavicle
					{
						OFFSET	43.2	22.4	-70.8
						CHANNELS 3  Xrotation Yrotation Zrotation
						JOINT right_shoulder
						{
							OFFSET	93.9	-5.79999	48.7
							CHANNELS 3  Xrotation Yrotation Zrotation
							JOINT right_elbow
							{
								OFFSET	291.4	-30.8	15.2
								CHANNELS 3  Xrotation Yrotation Zrotation
								JOINT right_lowarm_twist
								{
									OFFSET	110.7	-3.89999	13.6
									CHANNELS 3  Xrotation Yrotation Zrotation
									JOINT right_hand
									{
										OFFSET	110.7	-3.89999	13.6
										CHANNELS 3  Xrotation Yrotation Zrotation
										JOINT right_ee
										{
											OFFSET	80.8	-5.10001	12.1
											CHANNELS 3  Xrotation Yrotation Zrotation
											End Site
											{
												OFFSET	1	0	0
											}
										}
									}
								}
							}
						}
					}
				}
			}
		}
	}
	JOINT left_hip
	{
		OFFSET	-82.8	-127.5	0.300001
		CHANNELS 3  Xrotation Yrotation Zrotation
		JOINT left_knee
		{
			OFFSET	-28.2	-396.7	2.2
			CHANNELS 3  Xrotation Yrotation Zrotation
			JOINT left_ankle
			{
				OFFSET	-11.7	-411.3	35.4
				CHANNELS 3  Xrotation Yrotation Zrotation
				JOINT left_toes
				{
					OFFSET	0	-60	-88.6
					CHANNELS 3  Xrotation Yrotation Zrotation
					JOINT left_foot_ee
					{
						OFFSET	-22.5	-16.5	-42.2
						CHANNELS 3  Xrotation Yrotation Zrotation
						End Site
						{
							OFFSET	1	0	0
						}
					}
				}
			}
		}
	}
	JOINT right_hip
	{
		OFFSET	82.8	-127.5	0.300001
		CHANNELS 3  Xrotation Yrotation Zrotation
		JOINT right_knee
		{
			OFFSET	28.2	-396.7	2.2
			CHANNELS 3  Xrotation Yrotation Zrotation
			JOINT right_ankle
			{
				OFFSET	11.7	-411.3	35.4
				CHANNELS 3  Xrotation Yrotation Zrotation
				JOINT right_toes
				{
					OFFSET	0	-60	-88.6
					CHANNELS 3  Xrotation Yrotation Zrotation
					JOINT right_foot_ee
					{
						OFFSET	22.5	-16.5	-42.2
						CHANNELS 3  Xrotation Yrotation Zrotation
						End Site
						{
							OFFSET	1	0	0
						}
					}
				}
			}
		}
	}
}
MOTION
Frames: 13
Frame Time: 0.02
1232.51978267 737.799 -1723.98834295 -3.18361583434 20.2465634488 -1.33089889004 1.97486 0.412302 2.28349 1.97772 0.266202 2.30508 1.98843 -0.143951 2.31592 1.98101 0.223512 2.30961 -8.61787 7.11533 -6.6696 -8.52077 17.9541 -4.97666 -0.0 0.0 -0.0 1.63917 16.0433 4.46599 -23.6202 -9.85379 62.7243 0.744368 -20.2408 0.132868 4.38753 0.133793 -0.544321 0.66783 9.75725 8.35622 -0.0 0.0 -0.0 12.1918 18.2227 -24.4893 -4.91261 22.8781 -66.0756 0.935527 24.8642 -0.206242 47.0119 0.763292 5.79073 -0.747275 -4.54848 3.01274 0.0 0.0 0.0 18.7337 5.39333 -5.14844 -56.1512 -1.79903 8.08795 34.1381 -4.18061 -4.37811 0.671953 -0.0 -0.0 -0.0 0.0 -0.0 19.2854 27.1593 -7.05607 -19.6258 -0.299903 -2.98211 7.55223 -9.11901 1.08244 19.4792 -0.0 -0.0 0.0 0.0 0.0 
1210.00648984 743.795 -1735.02296326 -2.37081753453 21.4826397718 -2.53413596285 1.69743 0.494163 2.29556 1.7003 0.34713 2.32233 1.71464 -0.078482 2.34681 1.70708 0.293034 2.32977 -10.4916 6.75505 -7.55289 -10.4293 17.7722 -5.61869 -0.0 0.0 -0.0 1.61306 17.3224 4.51629 -26.7036 -10.6946 63.3873 0.723025 -19.7058 0.125577 4.9414 0.147706 -0.613705 1.03907 10.4089 11.0183 -0.0 0.0 -0.0 11.7511 18.9344 -23.4356 -3.45781 23.3945 -65.5749 0.994696 26.2309 -0.231762 45.6922 0.677958 5.64497 -0.842392 -2.30481 4.62355 0.0 0.0 0.0 24.7498 6.15722 -4.84461 -56.2228 -1.80622 8.09633 28.772 -2.83987 -3.80305 -0.141615 0.0 0.0 -0.0 0.0 -0.0 15.7249 34.8135 -6.08965 -17.6915 -0.315974 -2.68576 9.4602 -11.5296 1.34984 17.2298 -0.0 -0.0 0.0 0.0 0.0 
1184.69677351 742.614 -1739.69635797 -2.29783591531 26.3215790418 -2.56330234865 1.84557 0.100817 2.08093 1.84798 -0.0317732 2.08313 1.84675 -0.403405 2.04396 1.84093 -0.0756105 2.082 -10.2807 5.9796 -6.99084 -10.2151 15.9525 -5.30191 -0.0 0.0 -0.0 1.57049 17.5361 4.46591 -29.3208 -12.4704 63.7884 0.797637 -21.5602 0.151872 5.27282 0.15571 -0.655284 1.54446 12.0888 14.9339 -0.0 0.0 -0.0 11.5949 19.2436 -23.0587 -2.52062 23.9191 -64.157 1.0269 26.9616 -0.24618 44.3579 0.595125 5.49566 -0.465786 -0.69023 2.81496 0.0 0.0 0.0 25.0516 9.16177 -4.99885 -55.6108 -1.74514 8.02442 26.533 -1.15846 -3.53774 1.04902 -0.0 -0.0 -0.0 0.0 -0.0 13.092 38.5106 -4.75096 -16.338 -0.321266 -2.47816 14.7614 -20.4027 2.11416 14.631 -0.0 -0.0 0.0 0.0 0.0 
1147.02684891 737.243 -1742.62012579 -3.36433344841 32.15287462 -2.07062655524 2.13687 0.215808 2.32046 2.13986 0.067755 2.32948 2.14236 -0.337559 2.3059 2.13494 0.0307491 2.33026 -10.2475 5.72123 -4.61691 -10.2451 13.8764 -3.04678 -0.0 0.0 -0.0 1.28151 17.23 3.99747 -31.8077 -13.487 63.7533 0.783093 -21.2023 0.14657 5.74812 0.166768 -0.714993 1.71275 13.8584 16.646 -0.0 0.0 -0.0 11.8048 19.3301 -23.5327 0.247025 25.0564 -62.2417 1.19771 30.68 -0.328567 42.7722 0.501254 5.31581 -0.166477 3.96502 2.80003 0.0 0.0 0.0 27.7817 7.3108 -4.67487 -51.825 -1.3848 7.56575 17.72 6.51546 -2.44441 0.125656 -0.0 -0.0 -0.0 0.0 -0.0 9.40341 41.1247 -2.97144 -14.2976 -0.319973 -2.16513 23.581 -23.3219 3.30036 13.8727 -0.0 -0.0 0.0 0.0 0.0 
1123.49574674 734.886 -1748.57208283 -3.25111636275 35.9334126634 -2.1085064875 2.0714 0.183569 2.42238 2.07466 0.0291011 2.42915 2.07565 -0.395767 2.39689 2.06763 -0.0123725 2.42929 -9.71958 5.53092 -4.8456 -9.69669 13.6901 -3.38637 -0.0 0.0 -0.0 1.00652 17.2335 3.57314 -32.5271 -14.8516 63.2657 0.765852 -20.7757 0.140394 5.95917 0.17152 -0.741534 2.01295 14.4953 18.8355 -0.0 0.0 -0.0 11.5368 19.4402 -22.9132 1.26321 25.4495 -61.9448 1.20919 30.9203 -0.334444 41.1191 0.408748 5.12565 -0.0706019 7.14803 3.51163 0.0 0.0 0.0 29.497 7.53428 -5.28375 -47.9063 -1.04476 7.06737 12.9308 9.33246 -1.81934 -1.48636 0.0 0.0 -0.0 0.0 -0.0 7.67659 44.1591 -1.73716 -15.8302 -0.321986 -2.40026 25.5964 -23.352 3.5495 12.2605 -0.0 -0.0 0.0 0.0 0.0 
1091.75595117 728.701 -1765.29267967 -4.19455491696 37.2569681761 -2.05661676113 2.2549 0.427776 2.84645 2.25937 0.245858 2.86788 2.27125 -0.249047 2.8676 2.25984 0.20677 2.87096 -8.25742 6.09885 -2.18819 -8.2595 12.9322 -0.808874 -0.0 0.0 -0.0 0.301106 17.7888 2.54314 -33.8368 -16.8509 64.0262 0.785687 -21.2662 0.147509 4.93388 0.147522 -0.612762 1.99998 16.0671 19.2489 -0.0 0.0 -0.0 12.0818 18.8343 -24.1996 3.11115 25.1199 -60.9622 1.29564 32.6918 -0.380013 38.7859 0.287624 4.85295 0.335839 13.3664 3.42296 0.0 0.0 0.0 32.6716 8.44668 -5.19819 -43.9228 -0.735005 6.53851 7.92232 15.6319 -1.14401 -3.50021 0.0 0.0 -0.0 0.0 -0.0 6.50636 35.6163 -0.671397 -14.1532 -0.31946 -2.14298 35.0505 -25.5827 4.68421 9.8449 -0.0 -0.0 0.0 0.0 0.0 
1074.55150518 731.379 -1771.36612623 -5.10416876186 39.1543672827 -0.846939324326 2.37234 0.26173 2.71283 2.37643 0.0886404 2.72398 2.38004 -0.374313 2.69961 2.36987 0.0565741 2.72483 -8.73937 5.87986 -4.51268 -8.7056 14.143 -3.10128 -0.0 0.0 -0.0 0.237067 17.406 2.40435 -34.1781 -17.4458 64.8566 0.730644 -19.8972 0.128158 5.82749 0.168567 -0.724973 2.31563 15.2923 21.1042 -0.0 0.0 -0.0 11.8368 18.9613 -23.6298 2.14336 25.9567 -60.2831 1.34457 33.6642 -0.406788 38.2999 0.263801 4.79555 0.438145 13.9952 3.00383 0.0 0.0 0.0 32.8732 8.96078 -5.44639 -36.0535 -0.23497 5.43791 2.89281 14.5276 -0.422755 -6.14847 0.0 0.0 -0.0 0.0 -0.0 6.16585 36.7662 -0.54919 -14.6691 -0.321039 -2.22212 35.1838 -25.0226 4.68207 8.26967 -0.0 -0.0 0.0 0.0 0.0 
1067.11089209 731.379 -1763.69880853 -5.21374362996 40.6068068976 -0.676060059319 2.37234 0.26173 2.71283 2.37643 0.0886404 2.72398 2.38004 -0.374313 2.69961 2.36987 0.0565741 2.72483 -8.73937 5.87986 -4.51268 -8.7056 14.143 -3.10128 -0.0 0.0 -0.0 0.237067 17.406 2.40435 -34.1781 -17.4458 64.8566 0.730644 -19.8972 0.128158 5.82749 0.168567 -0.724973 2.31563 15.2923 21.1042 -0.0 0.0 -0.0 11.8368 18.9613 -23.6298 2.14336 25.9567 -60.2831 1.34457 33.6642 -0.406788 38.2999 0.263801 4.79555 0.438145 13.9952 3.00383 0.0 0.0 0.0 32.8732 8.96078 -5.44639 -36.0535 -0.23497 5.43791 2.89281 14.5276 -0.422755 -6.14847 0.0 0.0 -0.0 0.0 -0.0 6.16585 36.7662 -0.54919 -14.6691 -0.321039 -2.22212 35.1838 -25.0226 4.68207 8.26967 -0.0 -0.0 0.0 0.0 0.0 
1055.68718402 728.562 -1775.30646948 -5.12204247573 40.6192655783 -0.660296555284 2.45171 0.22143 2.64315 2.4556 0.0528513 2.65188 2.45737 -0.393844 2.62302 2.44777 0.0252049 2.65229 -6.91642 6.02529 -5.3397 -6.80978 15.0414 -4.14637 -0.0 0.0 -0.0 0.0670647 16.666 2.06005 -34.0084 -17.4251 65.7575 0.701945 -19.1738 0.118561 5.84739 0.169016 -0.727475 2.17174 15.7967 20.2996 -0.0 0.0 -0.0 12.4029 18.6345 -24.9511 2.68718 25.4745 -59.1825 1.3578 33.9235 -0.414146 37.4409 0.222893 4.69362 0.544038 16.6541 3.43805 0.0 0.0 0.0 34.8425 9.14921 -5.70445 -17.4011 0.317523 2.64123 -3.08226 17.5973 0.459907 -9.69181 0.0 0.0 -0.0 0.0 -0.0 5.47286 31.8387 0.00724546 -14.1741 -0.319537 -2.14619 37.39 -24.5178 4.89565 6.35605 -0.0 -0.0 0.0 0.0 0.0 
1051.16997425 728.562 -1770.47129903 -5.19009304797 41.4852106934 -0.556681868542 2.45171 0.22143 2.64315 2.4556 0.0528513 2.65188 2.45737 -0.393844 2.62302 2.44777 0.0252049 2.65229 -6.91642 6.02529 -5.3397 -6.80978 15.0414 -4.14637 -0.0 0.0 -0.0 0.0670647 16.666 2.06005 -34.0084 -17.4251 65.7575 0.701945 -19.1738 0.118561 5.84739 0.169016 -0.727475 2.17174 15.7967 20.2996 -0.0 0.0 -0.0 12.4029 18.6345 -24.9511 2.68718 25.4745 -59.1825 1.3578 33.9235 -0.414146 37.4409 0.222893 4.69362 0.544038 16.6541 3.43805 0.0 0.0 0.0 34.8425 9.14921 -5.70445 -17.4011 0.317523 2.64123 -3.08226 17.5973 0.459907 -9.69181 0.0 0.0 -0.0 0.0 -0.0 5.47286 31.8387 0.00724546 -14.1741 -0.319537 -2.14619 37.39 -24.5178 4.89565 6.35605 -0.0 -0.0 0.0 0.0 0.0 
1040.07188004 728.321 -1781.19620082 -6.75527858247 41.2700361865 1.85792177165 2.51339 0.236722 2.66328 2.51734 0.0668329 2.67294 2.51972 -0.380711 2.64655 2.50994 0.0418847 2.67344 -5.65351 5.46111 -5.98353 -5.49087 14.5055 -5.08745 -0.0 0.0 -0.0 0.050489 16.6656 2.03418 -33.6374 -17.5919 66.1957 0.690829 -18.8918 0.114936 6.08806 0.174373 -0.757751 1.71938 14.6279 16.9457 -0.0 0.0 -0.0 12.3795 17.3094 -24.9712 2.9443 25.1662 -59.2636 1.37865 34.329 -0.425845 36.659 0.186989 4.60031 0.568306 17.0031 3.42641 0.0 0.0 0.0 34.649 8.76869 -6.75474 -11.7603 0.30282 1.77623 -7.21387 18.8879 1.08841 -10.7052 0.0 0.0 -0.0 0.0 -0.0 6.50168 30.7202 -1.36632 -13.79 -0.317921 -2.08729 38.1688 -24.3374 4.96833 5.8503 -0.0 -0.0 0.0 0.0 0.0 
1036.51527971 728.321 -1777.29177802 -6.82564865014 41.9355971139 1.9639048947 2.51339 0.236722 2.66328 2.51734 0.0668329 2.67294 2.51972 -0.380711 2.64655 2.50994 0.0418847 2.67344 -5.65351 5.46111 -5.98353 -5.49087 14.5055 -5.08745 -0.0 0.0 -0.0 0.050489 16.6656 2.03418 -33.6374 -17.5919 66.1957 0.690829 -18.8918 0.114936 6.08806 0.174373 -0.757751 1.71938 14.6279 16.9457 -0.0 0.0 -0.0 12.3795 17.3094 -24.9712 2.9443 25.1662 -59.2636 1.37865 34.329 -0.425845 36.659 0.186989 4.60031 0.568306 17.0031 3.42641 0.0 0.0 0.0 34.649 8.76869 -6.75474 -11.7603 0.30282 1.77623 -7.21387 18.8879 1.08841 -10.7052 0.0 0.0 -0.0 0.0 -0.0 6.50168 30.7202 -1.36632 -13.79 -0.317921 -2.08729 38.1688 -24.3374 4.96833 5.8503 -0.0 -0.0 0.0 0.0 0.0 
1032.66442925 728.321 -1772.95871426 -6.90567543683 42.6660025099 2.08280895083 2.51339 0.236722 2.66328 2.51734 0.0668329 2.67294 2.51972 -0.380711 2.64655 2.50994 0.0418847 2.67344 -5.65351 5.46111 -5.98353 -5.49087 14.5055 -5.08745 -0.0 0.0 -0.0 0.050489 16.6656 2.03418 -33.6374 -17.5919 66.1957 0.690829 -18.8918 0.114936 6.08806 0.174373 -0.757751 1.71938 14.6279 16.9457 -0.0 0.0 -0.0 12.3795 17.3094 -24.9712 2.9443 25.1662 -59.2636 1.37865 34.329 -0.425845 36.659 0.186989 4.60031 0.568306 17.0031 3.42641 0.0 0.0 0.0 34.649 8.76869 -6.75474 -11.7603 0.30282 1.77623 -7.21387 18.8879 1.08841 -10.7052 0.0 0.0 -0.0 0.0 -0.0 6.50168 30.7202 -1.36632 -13.79 -0.317921 -2.08729 38.1688 -24.3374 4.96833 5.8503 -0.0 -0.0 0.0 0.0 0.0 
